<svg xmlns="http://www.w3.org/2000/svg" width="121" height="19" viewBox="0 0 121 19"><g fill="none" fill-rule="evenodd"><path fill="#FFF" d="M67.67 13.82c-1.087-.92-1.663-2.267-1.73-4.04a53.79 53.79 0 0 1-.02-1.76c0-.827.007-1.427.02-1.8.067-1.733.65-3.07 1.75-4.01S70.28.8 72.16.8c1.187 0 2.25.193 3.19.58.94.387 1.683.947 2.23 1.68.547.733.833 1.6.86 2.6a.39.39 0 0 1-.13.3.441.441 0 0 1-.31.12h-2.84c-.187 0-.323-.037-.41-.11-.087-.073-.163-.21-.23-.41-.187-.653-.47-1.11-.85-1.37s-.883-.39-1.51-.39c-1.507 0-2.287.84-2.34 2.52-.013.36-.02.913-.02 1.66 0 .747.007 1.313.02 1.7.053 1.68.833 2.52 2.34 2.52.613 0 1.117-.133 1.51-.4s.677-.72.85-1.36c.053-.2.127-.337.22-.41.093-.073.233-.11.42-.11H78c.12 0 .223.04.31.12.087.08.13.18.13.3-.027 1-.313 1.867-.86 2.6-.547.733-1.29 1.293-2.23 1.68s-2.003.58-3.19.58c-1.907 0-3.403-.46-4.49-1.38zm12.74 1.04a.47.47 0 0 1-.15-.36V1.3a.47.47 0 0 1 .15-.36c.1-.093.223-.14.37-.14h2.5c.147 0 .267.047.36.14.093.093.14.213.14.36v13.2a.497.497 0 0 1-.5.5h-2.5a.522.522 0 0 1-.37-.14zM86.2 3.01a.522.522 0 0 1-.14-.37V.78c0-.147.05-.27.15-.37.1-.1.217-.15.35-.15h2.5c.147 0 .27.05.37.15.1.1.15.223.15.37v1.86c0 .147-.05.27-.15.37-.1.1-.223.15-.37.15h-2.5a.47.47 0 0 1-.36-.15zm.01 11.84a.48.48 0 0 1-.15-.35V5.1a.497.497 0 0 1 .5-.5h2.5c.147 0 .27.047.37.14.1.093.15.213.15.36v9.4a.47.47 0 0 1-.15.36.522.522 0 0 1-.37.14h-2.5a.48.48 0 0 1-.35-.15zm5.8 0a.48.48 0 0 1-.15-.35V5.1a.497.497 0 0 1 .5-.5h2.46c.147 0 .267.047.36.14.093.093.14.213.14.36v.76c.36-.44.823-.793 1.39-1.06s1.217-.4 1.95-.4c.76 0 1.437.173 2.03.52.593.347 1.06.86 1.4 1.54.34.68.51 1.5.51 2.46v5.58a.497.497 0 0 1-.5.5h-2.66a.522.522 0 0 1-.37-.14.47.47 0 0 1-.15-.36V9.04c0-.6-.143-1.06-.43-1.38-.287-.32-.703-.48-1.25-.48-.533 0-.953.163-1.26.49-.307.327-.46.783-.46 1.37v5.46a.497.497 0 0 1-.5.5h-2.66a.48.48 0 0 1-.35-.15zm12.91-11.84a.522.522 0 0 1-.14-.37V.78c0-.147.05-.27.15-.37.1-.1.217-.15.35-.15h2.5c.147 0 .27.05.37.15.1.1.15.223.15.37v1.86c0 .147-.05.27-.15.37-.1.1-.223.15-.37.15h-2.5a.47.47 0 0 1-.36-.15zm.01 11.84a.48.48 0 0 1-.15-.35V5.1a.497.497 0 0 1 .5-.5h2.5c.147 0 .27.047.37.14.1.093.15.213.15.36v9.4a.47.47 0 0 1-.15.36.522.522 0 0 1-.37.14h-2.5a.48.48 0 0 1-.35-.15zm6.8-.86c-.94-.807-1.443-1.93-1.51-3.37l-.02-.8.02-.82c.053-1.44.553-2.567 1.5-3.38.947-.813 2.18-1.22 3.7-1.22 1.16 0 2.133.207 2.92.62.787.413 1.373.903 1.76 1.47s.593 1.083.62 1.55a.43.43 0 0 1-.14.37.537.537 0 0 1-.38.15h-2.68a.517.517 0 0 1-.34-.1.892.892 0 0 1-.22-.32c-.147-.373-.337-.647-.57-.82-.233-.173-.53-.26-.89-.26-1.027 0-1.56.68-1.6 2.04l-.02.76.02.66c.013.693.153 1.203.42 1.53.267.327.66.49 1.18.49.387 0 .69-.083.91-.25.22-.167.403-.443.55-.83a.892.892 0 0 1 .22-.32c.08-.067.193-.1.34-.1h2.68c.133 0 .253.047.36.14.107.093.16.207.16.34 0 .413-.183.91-.55 1.49-.367.58-.95 1.09-1.75 1.53-.8.44-1.8.66-3 .66-1.52 0-2.75-.403-3.69-1.21z"/><path fill="#27ACEB" d="M.51 14.85a.48.48 0 0 1-.15-.35V1.52c0-.147.047-.27.14-.37A.47.47 0 0 1 .86 1h5.5c1.76 0 3.137.4 4.13 1.2.993.8 1.49 1.927 1.49 3.38 0 .933-.217 1.727-.65 2.38-.433.653-1.03 1.16-1.79 1.52l2.7 4.88c.04.08.06.153.06.22 0 .107-.04.203-.12.29a.391.391 0 0 1-.3.13H9.06c-.387 0-.66-.18-.82-.54l-2.2-4.34H4.12v4.38a.47.47 0 0 1-.15.36.522.522 0 0 1-.37.14H.86a.48.48 0 0 1-.35-.15zm5.83-7.67c.573 0 1.01-.143 1.31-.43.3-.287.45-.683.45-1.19 0-.507-.15-.913-.45-1.22-.3-.307-.737-.46-1.31-.46H4.12v3.3h2.22zm8.74 6.71c-.933-.873-1.413-2.143-1.44-3.81v-.62c.053-1.587.547-2.827 1.48-3.72.933-.893 2.193-1.34 3.78-1.34 1.147 0 2.117.23 2.91.69a4.37 4.37 0 0 1 1.78 1.9c.393.807.59 1.723.59 2.75v.5c0 .147-.05.27-.15.37-.1.1-.223.15-.37.15h-6.34v.12c.013.6.153 1.083.42 1.45s.647.55 1.14.55c.32 0 .577-.063.77-.19.193-.127.377-.29.55-.49.12-.133.217-.217.29-.25a.902.902 0 0 1 .35-.05h2.62c.12 0 .223.037.31.11a.34.34 0 0 1 .13.27c0 .347-.197.753-.59 1.22-.393.467-.967.867-1.72 1.2-.753.333-1.643.5-2.67.5-1.627 0-2.907-.437-3.84-1.31zm5.42-5.17v-.04c0-.64-.14-1.137-.42-1.49-.28-.353-.673-.53-1.18-.53-.507 0-.897.177-1.17.53-.273.353-.41.85-.41 1.49v.04h3.18zm5.63 9.94a.47.47 0 0 1-.15-.36V5.1a.47.47 0 0 1 .15-.36c.1-.093.223-.14.37-.14h2.38c.147 0 .267.047.36.14.093.093.14.213.14.36v.72c.72-.947 1.753-1.42 3.1-1.42 1.293 0 2.31.403 3.05 1.21.74.807 1.137 1.957 1.19 3.45.013.173.02.42.02.74s-.007.573-.02.76c-.053 1.44-.453 2.573-1.2 3.4-.747.827-1.76 1.24-3.04 1.24-1.293 0-2.26-.44-2.9-1.32v4.42a.487.487 0 0 1-.14.36.487.487 0 0 1-.36.14H26.5a.522.522 0 0 1-.37-.14zm6.48-6.77c.26-.353.41-.843.45-1.47.013-.133.02-.34.02-.62 0-.28-.007-.487-.02-.62-.04-.627-.19-1.117-.45-1.47s-.69-.53-1.29-.53c-.573 0-1 .183-1.28.55-.28.367-.433.83-.46 1.39-.013.173-.02.427-.02.76 0 .32.007.567.02.74.027.52.183.95.47 1.29.287.34.71.51 1.27.51.6 0 1.03-.177 1.29-.53zm7.26 2.9c-.58-.273-1.033-.65-1.36-1.13a2.75 2.75 0 0 1-.49-1.58c0-.907.377-1.643 1.13-2.21.753-.567 1.79-.957 3.11-1.17l2.48-.38v-.24c0-.493-.1-.853-.3-1.08-.2-.227-.54-.34-1.02-.34-.267 0-.49.047-.67.14a3.58 3.58 0 0 0-.61.42 2.425 2.425 0 0 1-.46.32c-.053.093-.12.14-.2.14h-2.32a.447.447 0 0 1-.33-.13.362.362 0 0 1-.11-.31c.013-.36.193-.763.54-1.21.347-.447.873-.83 1.58-1.15.707-.32 1.58-.48 2.62-.48 1.653 0 2.88.363 3.68 1.09.8.727 1.2 1.71 1.2 2.95v6.06a.497.497 0 0 1-.5.5h-2.46a.48.48 0 0 1-.35-.15.48.48 0 0 1-.15-.35v-.7c-.293.413-.7.75-1.22 1.01s-1.14.39-1.86.39a4.47 4.47 0 0 1-1.93-.41zm4.36-2.53c.367-.387.55-.947.55-1.68v-.24l-1.66.28c-1.12.213-1.68.613-1.68 1.2 0 .307.13.553.39.74.26.187.583.28.97.28.587 0 1.063-.193 1.43-.58zm6.43-9.25a.522.522 0 0 1-.14-.37V.78c0-.147.05-.27.15-.37.1-.1.217-.15.35-.15h2.5c.147 0 .27.05.37.15.1.1.15.223.15.37v1.86c0 .147-.05.27-.15.37-.1.1-.223.15-.37.15h-2.5a.47.47 0 0 1-.36-.15zm.01 11.84a.48.48 0 0 1-.15-.35V5.1a.497.497 0 0 1 .5-.5h2.5c.147 0 .27.047.37.14.1.093.15.213.15.36v9.4a.47.47 0 0 1-.15.36.522.522 0 0 1-.37.14h-2.5a.48.48 0 0 1-.35-.15zm5.8 0a.48.48 0 0 1-.15-.35V5.12c0-.147.047-.27.14-.37a.47.47 0 0 1 .36-.15h2.44c.147 0 .27.05.37.15.1.1.15.223.15.37v.76c.373-.413.81-.73 1.31-.95.5-.22 1.057-.33 1.67-.33h.9c.147 0 .267.047.36.14.093.093.14.213.14.36v2.18a.497.497 0 0 1-.5.5h-2.02c-.533 0-.943.147-1.23.44-.287.293-.43.707-.43 1.24v5.04a.47.47 0 0 1-.15.36.522.522 0 0 1-.37.14h-2.64a.48.48 0 0 1-.35-.15z"/></g></svg>