<?xml version="1.0" encoding="UTF-8"?>
<svg width="314px" height="49px" viewBox="0 0 314 49" version="1.1" xmlns="http://www.w3.org/2000/svg" xmlns:xlink="http://www.w3.org/1999/xlink">
    <!-- Generator: Sketch 48.2 (47327) - http://www.bohemiancoding.com/sketch -->
    <title>Page 1 Copy</title>
    <desc>Created with Sketch.</desc>
    <defs>
        <polygon id="path-1" points="0 48.1134081 313.585246 48.1134081 313.585246 0 0 0"></polygon>
    </defs>
    <g id="headers/header_normal" stroke="none" stroke-width="1" fill="none" fill-rule="evenodd" transform="translate(-390.000000, -67.000000)">
        <g id="menu_option_2-copy">
            <g id="Page-1-Copy" transform="translate(390.000000, 67.000000)">
                <path d="M52.5561657,6.81800623 L41.5466019,5.45929595 C41.5466019,5.45929595 36.1225209,4.45469159 36.2301221,7.94586293 C36.2301221,7.94586293 35.8016735,10.4158006 39.1832872,10.4158006 L52.5561657,10.6848037 L52.5561657,17.0939252 L36.9823526,17.0939252 L36.9823526,23.519676 L52.5561657,23.519676 L52.5561657,29.292972 L30.4842156,29.292972 L30.4842156,0.0508660436 L52.5561657,0.0508660436 L52.5561657,6.81800623 Z" id="Fill-1" fill="#FFFFFF"></path>
                <path d="M58.5172748,10.6845103 C58.5172748,10.6845103 62.8907763,10.4849589 64.9616112,12.2955944 C64.9616112,12.2955944 66.4924835,13.3960617 67.2173246,14.3899059 C67.2173246,14.3899059 68.2375801,15.1959371 69.0700224,15.5715632 C69.0700224,15.5715632 69.473038,15.8131769 69.5806393,15.2761489 L70.0364773,13.9868903 C70.0364773,13.9868903 72.1053558,14.2823047 75.1113433,12.4834075 C75.1113433,12.4834075 75.8635738,12.2153826 75.0311315,11.9199682 L71.6749508,10.6845103 C71.6749508,10.6845103 71.0029321,10.5231084 71.3795364,9.47644174 L71.9165645,7.91915826 C71.9165645,7.91915826 72.0769882,7.30094019 72.9906206,7.5699433 L76.2127888,8.6978 C76.2127888,8.6978 76.6960162,8.93941371 76.4808137,8.42879688 C76.4808137,8.42879688 75.702172,6.33448536 73.1510442,4.74981246 C73.1510442,4.74981246 71.352147,3.59554455 69.2040349,5.04522679 C69.2040349,5.04522679 67.5127389,6.22688411 64.9616112,6.97911464 C64.9616112,6.97911464 63.1353246,7.89176885 58.5172748,7.38115202 L58.5172748,0.0515507788 L63.4845396,0.0515507788 L70.5735053,0.0515507788 C70.5735053,0.0515507788 81.6094804,-0.431676636 81.6094804,10.4164854 C81.6094804,10.4164854 81.8794617,20.4586162 70.4932935,20.4586162 L64.9616112,20.4586162 L64.9616112,29.2926785 L58.5172748,29.2926785 L58.5172748,10.6845103 Z" id="Fill-3" fill="#FFFFFF"></path>
                <path d="M12.9485383,14.390395 C16.081691,14.390395 17.8776536,12.7196411 17.8776536,10.2555726 L17.8776536,10.1724262 C17.8776536,7.41489969 15.9564822,5.99456324 12.8233296,5.99456324 L6.43279377,5.99456324 L6.43279377,14.390395 L12.9485383,14.390395 Z M0.000195638629,0.188986916 L13.3662268,0.188986916 C17.0843389,0.188986916 19.966096,1.2336972 21.8872673,3.15486854 C23.5169371,4.78356012 24.3933981,7.08133583 24.3933981,9.83788411 L24.3933981,9.92103053 C24.3933981,14.6408125 21.845205,17.6066941 18.128071,18.9859464 L25.2708374,29.4281583 L17.7524449,29.4281583 L11.4871178,20.0707626 L6.43279377,20.0707626 L6.43279377,29.4281583 L0.000195638629,29.4281583 L0.000195638629,0.188986916 Z" id="Fill-5" fill="#FFFFFF"></path>
                <mask id="mask-2" fill="white">
                    <use xlink:href="#path-1"></use>
                </mask>
                <g id="Clip-8"></g>
                <polygon id="Fill-7" fill="#FFFFFF" mask="url(#mask-2)" points="116.45585 29.4279626 122.888449 29.4279626 122.888449 0.188791277 116.45585 0.188791277"></polygon>
                <path d="M143.14722,14.390395 C146.280373,14.390395 148.076335,12.7196411 148.076335,10.2555726 L148.076335,10.1724262 C148.076335,7.41489969 146.154186,5.99456324 143.022011,5.99456324 L136.630497,5.99456324 L136.630497,14.390395 L143.14722,14.390395 Z M130.197899,0.188986916 L143.564908,0.188986916 C147.282042,0.188986916 150.163799,1.2336972 152.085949,3.15486854 C153.71464,4.78356012 154.59208,7.08133583 154.59208,9.83788411 L154.59208,9.92103053 C154.59208,14.6408125 152.043887,17.6066941 148.326753,18.9859464 L155.469519,29.4281583 L147.950148,29.4281583 L141.684821,20.0707626 L136.630497,20.0707626 L136.630497,29.4281583 L130.197899,29.4281583 L130.197899,0.188986916 Z" id="Fill-9" fill="#FFFFFF" mask="url(#mask-2)"></path>
                <path d="M99.724248,13.8556168 L97.7913383,10.5033489 L93.9245408,10.5317165 L91.990653,13.8595296 L93.9039988,17.1697352 L97.8109022,17.1697352 L99.724248,13.8556168 Z M92.6323477,-0.000489096573 L98.5504162,-0.000489096573 L111.052703,29.3795421 L104.343276,29.3795421 L101.675743,22.8373863 L89.3397495,22.8373863 L86.673195,29.3795421 L80.1300611,29.3795421 L92.6323477,-0.000489096573 Z" id="Fill-10" fill="#FFFFFF" mask="url(#mask-2)"></path>
                <path d="M166.567218,14.845157 L166.567218,14.763967 C166.567218,6.7388704 172.618321,0.163456075 181.289025,0.163456075 C186.612352,0.163456075 189.797349,1.93887664 192.419885,4.52032835 L188.468963,9.07577383 C186.289548,7.10178006 184.071006,5.88979875 181.248919,5.88979875 C176.490009,5.88979875 173.060464,9.84365545 173.060464,14.6827769 L173.060464,14.763967 C173.060464,19.6040667 176.408819,23.6361788 181.248919,23.6361788 C184.475,23.6361788 186.451928,22.3449639 188.669492,20.3279296 L192.622371,24.3218922 C189.718115,27.4266773 186.492034,29.3625215 181.045455,29.3625215 C172.73766,29.3625215 166.567218,22.9494872 166.567218,14.845157" id="Fill-11" fill="#48C5FF" mask="url(#mask-2)"></path>
                <polygon id="Fill-12" fill="#48C5FF" mask="url(#mask-2)" points="197.587679 0.648737695 203.797249 0.648737695 203.797249 23.2342393 217.873449 23.2342393 217.873449 28.8793919 197.587679 28.8793919"></polygon>
                <polygon id="Fill-13" fill="#48C5FF" mask="url(#mask-2)" points="222.839246 28.8791963 229.048816 28.8791963 229.048816 0.648542056 222.839246 0.648542056"></polygon>
                <polygon id="Fill-14" fill="#48C5FF" mask="url(#mask-2)" points="236.10824 0.648737695 241.83654 0.648737695 255.065624 18.0312299 255.065624 0.648737695 261.19596 0.648737695 261.19596 28.8793919 255.911761 28.8793919 242.240533 10.9324822 242.240533 28.8793919 236.10824 28.8793919"></polygon>
                <polygon id="Fill-15" fill="#48C5FF" mask="url(#mask-2)" points="268.25871 28.8791963 274.46828 28.8791963 274.46828 0.648542056 268.25871 0.648542056"></polygon>
                <path d="M280.279921,14.845157 L280.279921,14.763967 C280.279921,6.7388704 286.331024,0.163456075 295.001728,0.163456075 C300.325055,0.163456075 303.510052,1.93887664 306.132588,4.52032835 L302.17971,9.07577383 C300.002252,7.10178006 297.78371,5.88979875 294.961622,5.88979875 C290.202713,5.88979875 286.773168,9.84365545 286.773168,14.6827769 L286.773168,14.763967 C286.773168,19.6040667 290.121523,23.6361788 294.961622,23.6361788 C298.187703,23.6361788 300.164632,22.3449639 302.382196,20.3279296 L306.335074,24.3218922 C303.430819,27.4266773 300.204738,29.3625215 294.760115,29.3625215 C286.450364,29.3625215 280.279921,22.9494872 280.279921,14.845157" id="Fill-16" fill="#48C5FF" mask="url(#mask-2)"></path>
                <path d="M311.048596,2.84595514 C311.402702,2.84595514 311.602253,2.66107664 311.602253,2.39989907 C311.602253,2.10839751 311.402702,1.95384299 311.048596,1.95384299 L310.387337,1.95384299 L310.387337,2.84595514 L311.048596,2.84595514 Z M309.864982,1.49311402 L311.094571,1.49311402 C311.694203,1.49311402 312.140259,1.78461558 312.140259,2.35392399 C312.140259,2.79998006 311.879082,3.07680872 311.510303,3.18440997 L312.232209,4.21444735 L311.602253,4.21444735 L310.956645,3.27636012 L310.387337,3.27636012 L310.387337,4.21444735 L309.864982,4.21444735 L309.864982,1.49311402 Z M313.277898,2.90758131 L313.277898,2.89193022 C313.277898,1.58506417 312.263512,0.509051713 310.91067,0.509051713 C309.572502,0.509051713 308.542465,1.60071526 308.542465,2.90758131 L308.542465,2.9232324 C308.542465,4.23009844 309.556851,5.3061109 310.91067,5.3061109 C312.24786,5.3061109 313.277898,4.21444735 313.277898,2.90758131 Z M308.235312,2.9232324 L308.235312,2.90758131 C308.235312,1.44713894 309.418926,0.216571963 310.91067,0.216571963 C312.417088,0.216571963 313.586029,1.43148785 313.586029,2.89193022 L313.586029,2.90758131 C313.586029,4.36802368 312.401437,5.59859065 310.91067,5.59859065 C309.403275,5.59859065 308.235312,4.38367477 308.235312,2.9232324 Z" id="Fill-17" fill="#27ACEA" mask="url(#mask-2)"></path>
                <polygon id="Fill-18" fill="#FFFFFF" mask="url(#mask-2)" points="168.400548 36.7743888 176.274024 36.7743888 176.274024 37.540314 169.231034 37.540314 169.231034 42.1251053 175.555052 42.1251053 175.555052 42.8910305 169.231034 42.8910305 169.231034 47.9541583 168.400548 47.9541583"></polygon>
                <polygon id="Fill-19" fill="#FFFFFF" mask="url(#mask-2)" points="178.986847 47.9539626 179.817333 47.9539626 179.817333 36.7741931 178.986847 36.7741931"></polygon>
                <polygon id="Fill-20" fill="#FFFFFF" mask="url(#mask-2)" points="183.249226 36.7743888 184.031781 36.7743888 191.745812 46.5005632 191.745812 36.7743888 192.544017 36.7743888 192.544017 47.9541583 191.920908 47.9541583 184.047432 38.0196287 184.047432 47.9541583 183.249226 47.9541583"></polygon>
                <path d="M196.693611,37.5405097 L196.693611,47.1864723 L199.584171,47.1864723 C202.698738,47.1864723 204.66295,45.062815 204.66295,42.3962604 L204.66295,42.3639801 C204.66295,39.7130766 202.698738,37.5405097 199.584171,37.5405097 L196.693611,37.5405097 Z M195.863125,36.7745844 L199.584171,36.7745844 C203.097841,36.7745844 205.525717,39.1858305 205.525717,42.3316997 L205.525717,42.3639801 C205.525717,45.5098492 203.097841,47.9543539 199.584171,47.9543539 L195.863125,47.9543539 L195.863125,36.7745844 Z" id="Fill-21" fill="#FFFFFF" mask="url(#mask-2)"></path>
                <polygon id="Fill-22" fill="#FFFFFF" mask="url(#mask-2)" points="207.35934 47.9539626 208.412854 47.9539626 208.412854 46.5962305 207.35934 46.5962305"></polygon>
                <polygon id="Fill-23" fill="#FFFFFF" mask="url(#mask-2)" points="216.172469 36.7743888 224.045945 36.7743888 224.045945 37.540314 217.002955 37.540314 217.002955 42.1251053 223.326973 42.1251053 223.326973 42.8910305 217.002955 42.8910305 217.002955 47.9541583 216.172469 47.9541583"></polygon>
                <polygon id="Fill-24" fill="#FFFFFF" mask="url(#mask-2)" points="226.758866 47.9539626 227.589352 47.9539626 227.589352 36.7741931 226.758866 36.7741931"></polygon>
                <polygon id="Fill-25" fill="#FFFFFF" mask="url(#mask-2)" points="239.916542 36.7743888 235.620318 42.2522704 240.075988 47.9541583 239.086056 47.9541583 235.109701 42.7951676 231.148019 47.9541583 230.174717 47.9541583 234.613757 42.2522704 230.334162 36.7743888 231.324093 36.7743888 235.141003 41.7093732 238.942262 36.7743888"></polygon>
                <polygon id="Fill-26" fill="#FFFFFF" mask="url(#mask-2)" points="242.197688 47.9539626 243.251202 47.9539626 243.251202 46.5962305 242.197688 46.5962305"></polygon>
                <polygon id="Fill-27" fill="#FFFFFF" mask="url(#mask-2)" points="251.011013 36.7743888 258.88449 36.7743888 258.88449 37.540314 251.841499 37.540314 251.841499 42.1251053 258.165518 42.1251053 258.165518 42.8910305 251.841499 42.8910305 251.841499 47.9541583 251.011013 47.9541583"></polygon>
                <polygon id="Fill-28" fill="#FFFFFF" mask="url(#mask-2)" points="261.597215 47.9539626 262.427701 47.9539626 262.427701 36.7741931 261.597215 36.7741931"></polygon>
                <polygon id="Fill-29" fill="#FFFFFF" mask="url(#mask-2)" points="265.86067 36.7743888 266.643224 36.7743888 274.357255 46.5005632 274.357255 36.7743888 275.155461 36.7743888 275.155461 47.9541583 274.532352 47.9541583 266.658875 38.0196287 266.658875 47.9541583 265.86067 47.9541583"></polygon>
                <polygon id="Fill-30" fill="#FFFFFF" mask="url(#mask-2)" points="278.585495 47.9539626 279.415981 47.9539626 279.415981 36.7741931 278.585495 36.7741931"></polygon>
                <path d="M282.129783,46.3251732 L282.673658,45.7020642 C283.902269,46.83579 285.036973,47.3630361 286.681315,47.3630361 C288.358917,47.3630361 289.508293,46.4210361 289.508293,45.1425377 L289.508293,45.1112355 C289.508293,43.9295782 288.885184,43.2428866 286.346773,42.7312916 C283.662611,42.1883944 282.577795,41.2786748 282.577795,39.5844442 L282.577795,39.5531421 C282.577795,37.8921701 284.094973,36.6146498 286.170698,36.6146498 C287.800368,36.6146498 288.870512,37.0616841 290.004237,37.9723819 L289.476991,38.6267931 C288.423477,37.7160953 287.368007,37.364924 286.139396,37.364924 C284.494075,37.364924 283.408281,38.3079022 283.408281,39.4729302 L283.408281,39.5052106 C283.408281,40.6868679 284.014761,41.4058399 286.666642,41.9487371 C289.252985,42.475005 290.339758,43.4023321 290.339758,45.0310237 L290.339758,45.063304 C290.339758,46.8680704 288.7903,48.1133103 286.633384,48.1133103 C284.845247,48.1133103 283.471864,47.5234598 282.129783,46.3251732" id="Fill-31" fill="#FFFFFF" mask="url(#mask-2)"></path>
                <polygon id="Fill-32" fill="#FFFFFF" mask="url(#mask-2)" points="293.067645 36.7743888 293.898131 36.7743888 293.898131 41.9490305 301.052636 41.9490305 301.052636 36.7743888 301.8841 36.7743888 301.8841 47.9541583 301.052636 47.9541583 301.052636 42.7149558 293.898131 42.7149558 293.898131 47.9541583 293.067645 47.9541583"></polygon>
                <polygon id="Fill-33" fill="#FFFFFF" mask="url(#mask-2)" points="304.85096 47.9539626 305.904474 47.9539626 305.904474 46.5962305 304.85096 46.5962305"></polygon>
            </g>
        </g>
    </g>
</svg>