<?xml version="1.0" encoding="UTF-8"?>
<svg width="102px" height="94px" viewBox="0 0 102 94" version="1.1" xmlns="http://www.w3.org/2000/svg" xmlns:xlink="http://www.w3.org/1999/xlink">
    <!-- Generator: Sketch 48.2 (47327) - http://www.bohemiancoding.com/sketch -->
    <title>img_100_big</title>
    <desc>Created with Sketch.</desc>
    <defs>
        <rect id="path-1" x="7.06979196" y="18.9785241" width="45" height="27"></rect>
        <rect id="path-2" x="6.33493887" y="30.8109651" width="24" height="3"></rect>
        <rect id="path-3" x="9.07110001" y="38.3285061" width="24" height="3"></rect>
        <rect id="path-4" x="45.2424501" y="8.82074783" width="10" height="60" rx="5"></rect>
        <rect id="path-5" x="19.4906356" y="18.0226831" width="24" height="19"></rect>
        <rect id="path-6" x="34.2978055" y="3.75058396" width="10" height="10" rx="5"></rect>
        <rect id="path-7" x="55.8968967" y="18.854696" width="45" height="27"></rect>
        <rect id="path-8" x="52.677024" y="8.1155013" width="10" height="60" rx="5"></rect>
        <rect id="path-9" x="69.7159745" y="19.8807565" width="23" height="27"></rect>
        <rect id="path-10" x="63.6216686" y="3.04533743" width="10" height="10" rx="5"></rect>
        <path d="M15.056338,92 L15.056338,84.4475524 L22.7022133,84.4475524 L22.7022133,69.4433566 C22.7022133,68.0839161 22.7525151,66.6741259 22.7525151,66.6741259 L22.6519115,66.6741259 C22.6519115,66.6741259 22.1991952,67.6811189 21.2434608,68.5874126 L19.0804829,70.551049 L14,65.1132867 L23.7082495,56 L31.3038229,56 L31.3038229,84.4475524 L39,84.4475524 L39,92 L15.056338,92 Z M52.5,92 C42.3122677,92 39,83.6887686 39,73.4248985 C39,63.1610284 42.3122677,55 52.5,55 C62.6877323,55 66,63.1610284 66,73.4248985 C66,83.6887686 62.6877323,92 52.5,92 Z M52.5,84 C55.988764,84 57,79.2887828 57,73.424821 C57,67.6109785 55.988764,63 52.5,63 C49.011236,63 48,67.6109785 48,73.424821 C48,79.2887828 49.011236,84 52.5,84 Z M81.5,92 C71.3122677,92 68,83.6887686 68,73.4248985 C68,63.1610284 71.3122677,55 81.5,55 C91.6877323,55 95,63.1610284 95,73.4248985 C95,83.6887686 91.6877323,92 81.5,92 Z M81.5,84 C84.988764,84 86,79.2887828 86,73.424821 C86,67.6109785 84.988764,63 81.5,63 C78.011236,63 77,67.6109785 77,73.424821 C77,79.2887828 78.011236,84 81.5,84 Z" id="path-11"></path>
    </defs>
    <g id="Elements/Image/img_100_big" stroke="none" stroke-width="1" fill="none" fill-rule="evenodd" transform="translate(-3.000000, -3.000000)">
        <g id="img_100_big">
            <g id="Rectangle-3" transform="translate(29.569792, 32.478524) scale(-1, 1) rotate(20.000000) translate(-29.569792, -32.478524) ">
                <use fill="#FFFFFF" fill-rule="evenodd" xlink:href="#path-1"></use>
                <rect stroke="#263C60" stroke-width="3" x="8.56979196" y="20.4785241" width="42" height="24"></rect>
            </g>
            <g id="Rectangle-3" transform="translate(18.334939, 32.310965) scale(-1, 1) rotate(20.000000) translate(-18.334939, -32.310965) ">
                <use fill="#FFFFFF" fill-rule="evenodd" xlink:href="#path-2"></use>
                <rect stroke="#263C60" stroke-width="3" x="7.83493887" y="32.3109651" width="21" height="1"></rect>
            </g>
            <g id="Rectangle-3" transform="translate(21.071100, 39.828506) scale(-1, 1) rotate(20.000000) translate(-21.071100, -39.828506) ">
                <use fill="#FFFFFF" fill-rule="evenodd" xlink:href="#path-3"></use>
                <rect stroke="#263C60" stroke-width="3" x="10.5711" y="39.8285061" width="21" height="1"></rect>
            </g>
            <g id="Rectangle-3" transform="translate(50.242450, 38.820748) scale(-1, 1) rotate(20.000000) translate(-50.242450, -38.820748) ">
                <use fill="#FFFFFF" fill-rule="evenodd" xlink:href="#path-4"></use>
                <rect stroke="#263C60" stroke-width="3" x="46.7424501" y="10.3207478" width="7" height="57" rx="3.5"></rect>
            </g>
            <g id="Rectangle-3" transform="translate(31.490636, 27.522683) scale(-1, 1) rotate(20.000000) translate(-31.490636, -27.522683) ">
                <use fill="#FFFFFF" fill-rule="evenodd" xlink:href="#path-5"></use>
                <rect stroke="#263C60" stroke-width="3" x="20.9906356" y="19.5226831" width="21" height="16"></rect>
            </g>
            <polygon id="Star-Copy-2" stroke="#263C60" stroke-width="3" fill="#FFFFFF" transform="translate(31.319625, 27.052837) scale(-1, 1) rotate(20.000000) translate(-31.319625, -27.052837) " points="31.3196255 28.3695552 30.0835575 29.0528368 30.3196255 27.6056232 29.3196255 26.5807008 30.7015915 26.3695552 31.3196255 25.0528368 31.9376595 26.3695552 33.3196255 26.5807008 32.3196255 27.6056232 32.5556935 29.0528368"></polygon>
            <g id="Rectangle-3" transform="translate(39.297806, 8.750584) scale(-1, 1) rotate(20.000000) translate(-39.297806, -8.750584) ">
                <use fill="#FFFFFF" fill-rule="evenodd" xlink:href="#path-6"></use>
                <rect stroke="#263C60" stroke-width="3" x="35.7978055" y="5.25058396" width="7" height="7" rx="3.5"></rect>
            </g>
            <g id="Rectangle-3" transform="translate(78.396897, 32.354696) rotate(20.000000) translate(-78.396897, -32.354696) ">
                <use fill="#FFFFFF" fill-rule="evenodd" xlink:href="#path-7"></use>
                <rect stroke="#263C60" stroke-width="3" x="57.3968967" y="20.354696" width="42" height="24"></rect>
            </g>
            <g id="Rectangle-3" transform="translate(57.677024, 38.115501) rotate(20.000000) translate(-57.677024, -38.115501) ">
                <use fill="#FFFFFF" fill-rule="evenodd" xlink:href="#path-8"></use>
                <rect stroke="#263C60" stroke-width="3" x="54.177024" y="9.6155013" width="7" height="57" rx="3.5"></rect>
            </g>
            <g id="Rectangle-3" transform="translate(81.215975, 33.380756) rotate(20.000000) translate(-81.215975, -33.380756) ">
                <use fill="#FFFFFF" fill-rule="evenodd" xlink:href="#path-9"></use>
                <rect stroke="#263C60" stroke-width="3" x="71.2159745" y="21.3807565" width="20" height="24"></rect>
            </g>
            <g id="Rectangle-3" transform="translate(68.621669, 8.045337) rotate(20.000000) translate(-68.621669, -8.045337) ">
                <use fill="#FFFFFF" fill-rule="evenodd" xlink:href="#path-10"></use>
                <rect stroke="#263C60" stroke-width="3" x="65.1216686" y="4.54533743" width="7" height="7" rx="3.5"></rect>
            </g>
            <path d="M86.7095629,33.2824546 C86.4843446,33.1641906 86.3655142,32.9250044 86.4510698,32.7308388 C86.5422187,32.5239475 86.7246307,31.9079115 86.8356989,31.6928758 C86.8902056,31.5466153 86.921654,31.4263718 86.9150903,31.2789236 C86.895057,31.275417 86.8727406,31.2734374 86.8487691,31.2727022 C86.6843357,31.267216 86.4342326,31.3219081 86.2107836,31.3578228 C86.1269974,31.378297 85.8017264,31.4692432 85.5271952,31.4683383 C85.3626477,31.467603 85.2165354,31.4337244 85.1519835,31.3316362 C85.09234,31.2068114 84.9184322,30.7995897 84.8601585,30.668091 C84.8563345,30.6559309 84.8501704,30.650671 84.842294,30.6503316 C84.7910976,30.6433184 84.6574848,30.875661 84.5935607,30.9506576 C84.3780452,31.2182928 83.9224147,31.710918 83.8444501,31.8177572 C83.738747,31.9627168 83.5858428,32.1933626 83.4194689,32.2069933 C83.3961823,32.20869 83.3726673,32.2063146 83.3489812,32.1986791 C83.1766714,32.1658186 83.1865454,32.00638 83.2429356,31.8046356 C83.3687862,31.4153429 83.6423472,30.0605954 83.7416578,29.5433106 C83.7583808,29.4777027 83.8578057,29.099948 83.8128305,29.0457083 C83.7928542,29.0284014 83.7732774,29.023707 83.753929,29.027044 C83.6955982,29.0358106 83.6398929,29.1184992 83.5860711,29.1509073 C83.4510885,29.241401 83.0502501,29.4846594 82.7834811,29.4790035 C82.765902,29.4785511 82.7488365,29.4770806 82.732513,29.4743092 C82.5238465,29.4529866 82.4575252,29.1655559 82.3681456,28.9931088 C82.3480552,28.9077619 81.8294708,27.7542498 81.6901505,27.5702082 C81.6899222,27.5705476 81.6895798,27.5711132 81.6893515,27.5714525 C81.6890661,27.5711132 81.6887807,27.5705476 81.6884953,27.5702082 C81.5493463,27.7542498 81.0307619,28.9077619 81.0107856,28.9931088 C80.9212919,29.1655559 80.8550848,29.4529866 80.646247,29.4743092 C80.6299235,29.4770806 80.6128581,29.4785511 80.5952789,29.4790035 C80.3284528,29.4846594 79.9278427,29.241401 79.7928601,29.1509073 C79.73881,29.1184992 79.6831618,29.0358106 79.624774,29.027044 C79.6053684,29.023707 79.5857346,29.0284014 79.5657012,29.0457083 C79.5210685,29.099948 79.6204363,29.4777027 79.6368739,29.5433106 C79.7363558,30.0605954 80.0098596,31.4153429 80.1357673,31.8046356 C80.1922717,32.00638 80.2020886,32.1658186 80.0297218,32.1986791 C80.0059785,32.2063146 79.9824636,32.20869 79.959177,32.2069933 C79.7928601,32.1933626 79.640013,31.9627168 79.5341958,31.8177572 C79.4563454,31.710918 79.0007148,31.2182928 78.7850851,30.9506576 C78.721161,30.875661 78.5849228,30.6432618 78.5353816,30.6503316 C78.5277335,30.650671 78.5218548,30.6558744 78.5184873,30.668091 C78.460499,30.7995897 78.2864771,31.2068114 78.2267765,31.3316362 C78.1622817,31.4337244 78.0161694,31.467603 77.8515648,31.4683383 C77.5770336,31.4692432 77.2517056,31.378297 77.1678622,31.3578228 C76.9444703,31.3219081 76.6944243,31.267216 76.530048,31.2727022 C76.5060194,31.2734374 76.4837601,31.275417 76.4637268,31.2789236 C76.4461476,31.3741117 76.4884974,31.5466153 76.5430611,31.6928758 C76.6541864,31.9079115 76.8365413,32.5239475 76.9275761,32.7308388 C77.0132458,32.9250044 76.8944725,33.1641906 76.669083,33.2824546 C76.6550425,33.2903162 76.6384336,33.2987434 76.6207974,33.3072272 C76.6216536,33.3070575 76.6225097,33.3069444 76.6233658,33.3068313 C76.6230234,33.3069444 76.6227951,33.3071141 76.6224526,33.3072272 C76.5279362,33.3528134 76.3913555,33.403094 76.3060853,33.4072228 C76.2345702,33.4105597 76.1752692,33.4023022 76.1934762,33.440253 C76.2581993,33.5624195 76.4818766,33.7472529 76.6707381,33.8671005 C76.8523511,33.9820841 78.7022692,35.3566271 78.8382791,35.5092787 C78.9587647,35.6445669 79.0089337,35.7176971 79.0569338,35.8507229 C79.0835308,36.1399634 78.9045433,36.3367307 78.8183028,36.5799326 C78.7850851,36.6127931 78.8050614,36.6980834 78.864819,36.6912964 C78.9674971,36.6785141 79.241001,36.6373395 79.4299767,36.6012551 C79.7794475,36.5636437 80.5882587,36.4287515 80.7738098,36.4024517 C81.0057059,36.3499654 81.151704,36.3335634 81.3637951,36.3270592 C81.4947254,36.3583926 81.4962664,36.5207157 81.5029442,36.6455971 C81.4863924,37.5486678 81.4714958,38.3649212 81.464818,39.0940177 L81.9155401,39.0940177 C81.9089764,38.3649212 81.8939086,37.5486678 81.877471,36.6455971 C81.8840346,36.5207157 81.8856898,36.3583926 82.0166201,36.3270592 C82.2287111,36.3335634 82.3745951,36.3499654 82.6065483,36.4024517 C82.7920424,36.4287515 83.6008536,36.5636437 83.9506098,36.6012551 C84.1393,36.6373395 84.412861,36.6785141 84.5155961,36.6912964 C84.5752396,36.6980834 84.5952159,36.6127931 84.5621124,36.5799326 C84.475929,36.3367307 84.2968273,36.1399634 84.3233672,35.8507229 C84.3713674,35.7176971 84.4218218,35.6445669 84.5421361,35.5092787 C84.5701029,35.4778887 84.6713541,35.394182 84.8150121,35.2809518 C85.3694967,34.8438106 86.5654483,33.9584426 86.7095629,33.8671005 C86.8986527,33.7472529 87.1222159,33.5624195 87.1868249,33.440253 C87.2050318,33.4023022 87.145902,33.4105597 87.0742157,33.4072228 C86.9732499,33.4023022 86.7991708,33.3325654 86.7095629,33.2824546" id="Fill-1" fill="#263C60" transform="translate(81.690154, 33.332113) rotate(20.000000) translate(-81.690154, -33.332113) "></path>
            <g id="100">
                <use fill="#FFFFFF" fill-rule="evenodd" xlink:href="#path-11"></use>
                <use fill="black" fill-opacity="1" xlink:href="#path-11"></use>
                <path stroke="#FFFFFF" stroke-width="5" d="M20.2022133,81.9475524 L20.2022133,72.909246 L18.9362011,74.0585816 L10.4705174,64.9975581 L22.7186959,53.5 L33.8038229,53.5 L33.8038229,81.9475524 L41.5,81.9475524 L41.5,94.5 L12.556338,94.5 L12.556338,81.9475524 L20.2022133,81.9475524 Z M52.5,94.5 C41.5637912,94.5 36.5,86.4019386 36.5,73.4248985 C36.5,60.4916725 41.5537315,52.5 52.5,52.5 C63.4462685,52.5 68.5,60.4916725 68.5,73.4248985 C68.5,86.4019386 63.4362088,94.5 52.5,94.5 Z M52.5,81.5 C53.5699723,81.5 54.5,78.9204021 54.5,73.424821 C54.5,67.9966623 53.5848711,65.5 52.5,65.5 C51.4151289,65.5 50.5,67.9966623 50.5,73.424821 C50.5,78.9204021 51.4300277,81.5 52.5,81.5 Z M81.5,94.5 C70.5637912,94.5 65.5,86.4019386 65.5,73.4248985 C65.5,60.4916725 70.5537315,52.5 81.5,52.5 C92.4462685,52.5 97.5,60.4916725 97.5,73.4248985 C97.5,86.4019386 92.4362088,94.5 81.5,94.5 Z M81.5,81.5 C82.5699723,81.5 83.5,78.9204021 83.5,73.424821 C83.5,67.9966623 82.5848711,65.5 81.5,65.5 C80.4151289,65.5 79.5,67.9966623 79.5,73.424821 C79.5,78.9204021 80.4300277,81.5 81.5,81.5 Z"></path>
            </g>
        </g>
    </g>
</svg>