<?xml version="1.0" encoding="UTF-8"?>
<svg width="86px" height="76px" viewBox="0 0 86 76" version="1.1" xmlns="http://www.w3.org/2000/svg" xmlns:xlink="http://www.w3.org/1999/xlink">
    <!-- Generator: Sketch 48.2 (47327) - http://www.bohemiancoding.com/sketch -->
    <title>img_findit_big</title>
    <desc>Created with Sketch.</desc>
    <defs>
        <path d="M27.2609842,18.3683942 L31.4478345,17.820916 L31.4478345,13.6283479 L27.2452602,13.0780108 C26.9393586,11.7572018 26.4104632,10.523589 25.7014575,9.41290864 L28.2573087,6.01940141 L25.3455251,3.12620064 L21.9448707,5.71778809 C20.8470554,5.03880075 19.6348843,4.53134706 18.3383758,4.23973987 L17.8194866,0 L13.6269185,0 L13.0751519,4.24259876 C11.751484,4.54421208 10.5164417,5.06596025 9.40433196,5.76638929 L6.01940141,3.1919552 L3.12763008,6.10230934 L5.72350588,9.42291477 C5.01307071,10.5350246 4.48417531,11.7729257 4.17827365,13.0965936 L0,13.6283479 L0,17.820916 L4.15969083,18.3383758 C4.45701581,19.6634732 4.98019342,20.9013744 5.68205191,22.0177725 L3.19052575,25.431292 L6.10230934,28.3202044 L9.47151597,25.780077 C10.5693313,26.4619233 11.7857907,26.9708064 13.0865875,27.2652725 L13.6269185,31.4478345 L17.8194866,31.4478345 L18.3784004,27.2566958 C19.6877738,26.9565119 20.9113805,26.4390521 22.0149136,25.7457703 L25.4298625,28.2573087 L28.3202044,25.3469546 L25.7614942,21.9920424 C26.4504877,20.8913682 26.9650886,19.6720499 27.2609842,18.3683942 Z" id="path-1"></path>
        <path d="M18.2041364,12.2659091 L21,11.9003182 L21,9.10063636 L18.1936364,8.73313636 C17.9893636,7.85113636 17.6361818,7.02736364 17.1627273,6.28568182 L18.8694545,4.01959091 L16.9250455,2.08759091 L14.6541818,3.81818182 C13.9210909,3.36477273 13.1116364,3.02590909 12.2458636,2.83118182 L11.8993636,0 L9.09968182,0 L8.73122727,2.83309091 C7.84731818,3.0345 7.02259091,3.38290909 6.27995455,3.85063636 L4.01959091,2.1315 L2.08854545,4.07495455 L3.822,6.29236364 C3.34759091,7.035 2.99440909,7.86163636 2.79013636,8.74554545 L0,9.10063636 L0,11.9003182 L2.77772727,12.2458636 C2.97627273,13.1307273 3.32563636,13.9573636 3.79431818,14.7028636 L2.13054545,16.9823182 L4.07495455,18.9114545 L6.32481818,17.2152273 C7.05790909,17.6705455 7.87022727,18.0103636 8.73886364,18.207 L9.09968182,21 L11.8993636,21 L12.2725909,18.2012727 C13.1469545,18.0008182 13.9640455,17.6552727 14.7009545,17.1923182 L16.9813636,18.8694545 L18.9114545,16.926 L17.2028182,14.6856818 C17.6629091,13.9506818 18.0065455,13.1364545 18.2041364,12.2659091 Z" id="path-2"></path>
    </defs>
    <g id="Elements/Image/img_findit_big" stroke="none" stroke-width="1" fill="none" fill-rule="evenodd" transform="translate(-4.000000, -17.000000)">
        <g id="img_findit_big">
            <g id="Group-6" transform="translate(8.000000, 17.000000)">
                <circle id="Oval" stroke="#263C60" stroke-width="3" cx="35" cy="24" r="22.5"></circle>
                <path d="M34.3897553,7.51107566 C25.5597735,7.83210854 18.5,15.091605 18.5,24 C18.5,33.1126984 25.8873016,40.5 35,40.5 C43.908395,40.5 51.1678915,33.4402265 51.4889243,24.6102447 L34.3897553,7.51107566 Z" id="Oval" stroke="#263C60" stroke-width="3" transform="translate(35.000000, 24.000000) rotate(180.000000) translate(-35.000000, -24.000000) "></path>
                <g id="Group-3" transform="translate(65.000000, 53.500000) rotate(-45.000000) translate(-65.000000, -53.500000) translate(59.000000, 34.000000)" stroke="#263C60" stroke-width="3">
                    <rect id="Rectangle" x="1.5" y="8.5" width="9" height="29" rx="4"></rect>
                    <rect id="Rectangle" x="3.5" y="1.5" width="5" height="7"></rect>
                </g>
                <g id="Group-4" transform="translate(0.000000, 29.000000)">
                    <g id="Stroke-3" stroke-linecap="round" stroke-linejoin="round">
                        <use fill="#FFFFFF" fill-rule="evenodd" xlink:href="#path-1"></use>
                        <path stroke="#FFFFFF" stroke-width="4" d="M28.8238338,20.18106 C28.6331547,20.741242 28.4062516,21.2881431 28.1448185,21.819009 L30.9672981,25.5197686 L25.6339409,30.8900531 L21.8663122,28.1191349 C21.3230724,28.3888866 20.7625881,28.6226566 20.1878026,28.8187037 L19.5704799,33.4478345 L11.8686715,33.4478345 L11.2719805,28.8290037 C10.7140687,28.6399514 10.1695483,28.4153802 9.64115513,28.1568992 L5.92326519,30.9599074 L0.561740036,25.6404954 L3.31050986,21.8745388 C3.03401158,21.319274 2.79535728,20.7465161 2.5964889,20.1593313 L-2,19.5875344 L-2,11.8667492 L2.62157283,11.2785778 C2.81897702,10.7042835 3.05411861,10.1444969 3.32521511,9.60240333 L0.465376786,5.94414098 L5.83558314,0.53942515 L9.57273871,3.38174659 C10.1190609,3.11096578 10.6829736,2.87646272 11.2615358,2.67996196 L11.8701832,-2 L19.5896354,-2 L20.1621745,2.67810236 C20.7104408,2.864148 21.2461847,3.08487704 21.7670273,3.33874361 L25.5191536,0.479304811 L30.9039519,5.8297377 L28.0879199,9.56869742 C28.3637903,10.1173504 28.602664,10.6837707 28.8027071,11.2648865 L33.4478345,11.873177 L33.4478345,19.5764194 L28.8238338,20.18106 Z"></path>
                    </g>
                    <path d="M27.2609842,18.3683942 L31.4478345,17.820916 L31.4478345,13.6283479 L27.2452602,13.0780108 C26.9393586,11.7572018 26.4104632,10.523589 25.7014575,9.41290864 L28.2573087,6.01940141 L25.3455251,3.12620064 L21.9448707,5.71778809 C20.8470554,5.03880075 19.6348843,4.53134706 18.3383758,4.23973987 L17.8194866,0 L13.6269185,0 L13.0751519,4.24259876 C11.751484,4.54421208 10.5164417,5.06596025 9.40433196,5.76638929 L6.01940141,3.1919552 L3.12763008,6.10230934 L5.72350588,9.42291477 C5.01307071,10.5350246 4.48417531,11.7729257 4.17827365,13.0965936 L0,13.6283479 L0,17.820916 L4.15969083,18.3383758 C4.45701581,19.6634732 4.98019342,20.9013744 5.68205191,22.0177725 L3.19052575,25.431292 L6.10230934,28.3202044 L9.47151597,25.780077 C10.5693313,26.4619233 11.7857907,26.9708064 13.0865875,27.2652725 L13.6269185,31.4478345 L17.8194866,31.4478345 L18.3784004,27.2566958 C19.6877738,26.9565119 20.9113805,26.4390521 22.0149136,25.7457703 L25.4298625,28.2573087 L28.3202044,25.3469546 L25.7614942,21.9920424 C26.4504877,20.8913682 26.9650886,19.6720499 27.2609842,18.3683942 Z" id="Stroke-3" stroke="#263C60" stroke-width="3" fill="#FFFFFF" stroke-linecap="round" stroke-linejoin="round"></path>
                    <path d="M20.4310345,16.0344828 C20.4310345,13.5494099 18.4161074,11.5344828 15.9310345,11.5344828 C13.4459616,11.5344828 11.4310345,13.5494099 11.4310345,16.0344828 C11.4310345,18.5195556 13.4459616,20.5344828 15.9310345,20.5344828 C18.4161074,20.5344828 20.4310345,18.5195556 20.4310345,16.0344828 Z" id="Stroke-1" stroke="#263C60" stroke-width="3"></path>
                </g>
                <g id="Group-4" transform="translate(31.000000, 51.000000)" stroke-linecap="round" stroke-linejoin="round">
                    <g id="Stroke-3">
                        <use fill="#FFFFFF" fill-rule="evenodd" xlink:href="#path-2"></use>
                        <path stroke="#FFFFFF" stroke-width="4" d="M19.7337588,14.0829197 C19.6809497,14.2187396 19.625121,14.3533472 19.5663229,14.4866615 L21.5585483,17.098814 L17.185442,21.5021989 L14.5267156,19.5468275 C14.3814702,19.6115952 14.2346495,19.6728567 14.086358,19.7305498 L13.650357,23 L7.3414349,23 L6.9199794,19.7376222 C6.78547454,19.6855568 6.65217448,19.630558 6.52015848,19.5726727 L3.8959104,21.5511576 L-0.498240263,17.1915216 L1.44140277,14.5341105 C1.37308226,14.3814053 1.3086663,14.2269996 1.24823076,14.071012 L-2,13.6669365 L-2,7.33903767 L1.26647171,6.92332523 C1.3225445,6.78032017 1.38194412,6.63870887 1.44461365,6.49859282 L-0.573707843,3.91678619 L3.83577264,-0.52103005 L6.47439872,1.48579663 C6.61916915,1.42148822 6.76551491,1.36064974 6.91333414,1.30334096 L7.34294654,-2 L13.6695124,-2 L14.0737948,1.30331014 C14.2004892,1.35248471 14.3261464,1.40428518 14.4507057,1.45867169 L17.0986739,-0.559304917 L21.5160977,3.8299272 L19.5294141,6.46772743 C19.5960126,6.61544647 19.6589589,6.76480914 19.7181863,6.91570417 L23,7.34546549 L23,13.6558215 L19.7337588,14.0829197 Z"></path>
                    </g>
                    <path d="M18.2041364,12.2659091 L21,11.9003182 L21,9.10063636 L18.1936364,8.73313636 C17.9893636,7.85113636 17.6361818,7.02736364 17.1627273,6.28568182 L18.8694545,4.01959091 L16.9250455,2.08759091 L14.6541818,3.81818182 C13.9210909,3.36477273 13.1116364,3.02590909 12.2458636,2.83118182 L11.8993636,0 L9.09968182,0 L8.73122727,2.83309091 C7.84731818,3.0345 7.02259091,3.38290909 6.27995455,3.85063636 L4.01959091,2.1315 L2.08854545,4.07495455 L3.822,6.29236364 C3.34759091,7.035 2.99440909,7.86163636 2.79013636,8.74554545 L0,9.10063636 L0,11.9003182 L2.77772727,12.2458636 C2.97627273,13.1307273 3.32563636,13.9573636 3.79431818,14.7028636 L2.13054545,16.9823182 L4.07495455,18.9114545 L6.32481818,17.2152273 C7.05790909,17.6705455 7.87022727,18.0103636 8.73886364,18.207 L9.09968182,21 L11.8993636,21 L12.2725909,18.2012727 C13.1469545,18.0008182 13.9640455,17.6552727 14.7009545,17.1923182 L16.9813636,18.8694545 L18.9114545,16.926 L17.2028182,14.6856818 C17.6629091,13.9506818 18.0065455,13.1364545 18.2041364,12.2659091 Z" id="Stroke-3" stroke="#263C60" stroke-width="3" fill="#FFFFFF"></path>
                </g>
            </g>
        </g>
    </g>
</svg>