<?xml version="1.0" encoding="UTF-8"?>
<svg width="75px" height="73px" viewBox="0 0 75 73" version="1.1" xmlns="http://www.w3.org/2000/svg" xmlns:xlink="http://www.w3.org/1999/xlink">
    <!-- Generator: Sketch 48.2 (47327) - http://www.bohemiancoding.com/sketch -->
    <title>img_fixit_big</title>
    <desc>Created with Sketch.</desc>
    <defs></defs>
    <g id="Elements/Image/img_fixit_big" stroke="none" stroke-width="1" fill="none" fill-rule="evenodd" transform="translate(-11.000000, -15.000000)">
        <g id="img_fixit_big">
            <rect id="Rectangle" stroke="#263C60" stroke-width="3" transform="translate(70.000000, 72.000000) rotate(-45.000000) translate(-70.000000, -72.000000) " x="65.5" y="57.5" width="9" height="29" rx="4"></rect>
            <rect id="Rectangle" stroke="#263C60" stroke-width="3" transform="translate(46.746952, 48.246952) rotate(-45.000000) translate(-46.746952, -48.246952) " x="44.2469517" y="29.7469517" width="5" height="37"></rect>
            <polygon id="Stroke-6" stroke="#263C60" stroke-width="3" stroke-linecap="round" stroke-linejoin="round" points="13 36.4636957 21.76 45.2028261 48.04 19 30.92588 19"></polygon>
            <path d="M65.2715687,46.2683818 L44.1229291,67.3666375 C46.204596,71.950915 45.0979831,76.9246456 41.128063,80.9809505 C37.3577113,84.8331115 30.9806417,86.0554639 25.6880626,84.3490232 L22.5704871,83.3438502 L30.3936064,75.5360768 L24.5629336,69.7192948 L16.7555902,77.5080381 L15.7501064,74.4043398 C14.0367003,69.115448 15.2610864,62.7470548 19.1296463,58.9882489 C23.2413569,54.9945955 28.288546,53.9112225 32.7753038,55.9608478 L54.1057245,34.681244 C52.0590544,29.8591401 52.957913,25.2520234 57.1148975,21.0932441 C60.9292546,17.2749869 67.2829517,16.0434064 72.5409006,17.7398286 L75.6583239,18.7456326 L67.8323599,26.5529522 L73.6638926,32.3705921 L81.4682501,24.5815437 L82.4751824,27.683224 C84.1894902,32.9638521 82.9632398,39.329838 79.1015841,43.0979095 C74.9956215,47.1007214 70.0239222,48.1913933 65.2715687,46.2683818 Z" id="Stroke-2" stroke="#FFFFFF" stroke-width="4" stroke-linecap="round" stroke-linejoin="round"></path>
            <path d="M80.5729136,28.3007783 L73.6495936,35.2105174 L69.3104736,30.8817348 L69.3396736,30.8817348 L65.0005536,26.5529522 L71.9267936,19.6432131 C67.6110336,18.2507783 61.9520736,19.0809957 58.5298336,22.5067348 C54.3892736,26.6490826 54.2520336,30.8467783 56.5208736,35.0969087 L33.1375136,58.4245609 C29.2042736,55.9601261 24.5059936,56.554387 20.5231136,60.4229087 C17.0483136,63.7991261 16.2569936,69.4795609 17.6527536,73.7879522 L24.5789936,66.8782131 L28.9210336,71.2069957 L28.8859936,71.2069957 L33.2251136,75.5357783 L26.3017936,82.4455174 C30.6204736,83.8379522 36.3115536,83.0426913 39.6987536,79.5819957 C43.4392736,75.7600826 44.2159936,71.1633 41.6639136,66.9947348 L64.8487136,43.8651696 C69.1206736,46.1402566 73.7342736,45.5372566 77.7054736,41.6658218 C81.1715136,38.2837783 81.9715936,32.6091696 80.5729136,28.3007783 Z" id="Stroke-2" stroke="#263C60" stroke-width="3" fill="#FFFFFF" stroke-linecap="round" stroke-linejoin="round"></path>
        </g>
    </g>
</svg>