<?xml version="1.0" encoding="UTF-8"?>
<svg width="96px" height="78px" viewBox="0 0 96 78" version="1.1" xmlns="http://www.w3.org/2000/svg" xmlns:xlink="http://www.w3.org/1999/xlink">
    <!-- Generator: Sketch 48.2 (47327) - http://www.bohemiancoding.com/sketch -->
    <title>img_365_returns_big</title>
    <desc>Created with Sketch.</desc>
    <defs></defs>
    <g id="Elements/Image/img_365_returns_big" stroke="none" stroke-width="1" fill="none" fill-rule="evenodd" transform="translate(0.000000, -18.000000)" stroke-linecap="round" stroke-linejoin="round">
        <g id="img_365_returns_big">
            <polyline id="Stroke-1" stroke="#263C60" stroke-width="3" transform="translate(74.031746, 65.222222) scale(-1, 1) translate(-74.031746, -65.222222) " points="94 94 54.0634921 76.4845754 54.0634921 36.4444444 94 53.9666937"></polyline>
            <polyline id="Stroke-3" stroke="#263C60" stroke-width="3" transform="translate(37.031746, 65.222222) scale(-1, 1) translate(-37.031746, -65.222222) " points="20 94 54.0634921 76.4845754 54.0634921 36.4444444 20 53.9666937"></polyline>
            <polyline id="Stroke-5" stroke="#263C60" stroke-width="3" transform="translate(57.000000, 28.222222) scale(-1, 1) translate(-57.000000, -28.222222) " points="20 36.4444444 54.5344545 20 94 36.4444444"></polyline>
            <path d="M38.0800889,29.3784722 L76.3993056,45.6351096" id="Stroke-7" stroke="#263C60" stroke-width="3" transform="translate(57.239697, 37.506791) scale(-1, 1) translate(-57.239697, -37.506791) "></path>
            <path d="M66.984127,52.8888889 L81.0793651,58.7619048" id="Stroke-7" stroke="#263C60" stroke-width="3" transform="translate(74.031746, 55.825397) scale(-1, 1) translate(-74.031746, -55.825397) "></path>
            <path d="M50.5396825,55.2380952 L50.5396825,94" id="Stroke-9" stroke="#263C60" stroke-width="3" transform="translate(52.301587, 74.619048) scale(-1, 1) translate(-52.301587, -74.619048) "></path>
            <path d="M26.0930233,47.4883563 L26.0930233,47.6 L26.0930233,56.8571429 L4,41.3668571 L26.0930233,26 L26.0930233,35.1472605 C26.0930233,35.1472605 55.7965249,34.0612441 53.9141698,66 C53.9141698,66 54.0872599,47.4883563 26.0930233,47.4883563 Z" id="Combined-Shape" stroke="#FFFFFF" stroke-width="8"></path>
            <path d="M54,35.1472605 C54,35.1472605 24.2964984,34.0612441 26.1788535,66 C26.1788535,66 26.0057634,47.4883563 54,47.4883563" id="Stroke-1" stroke="#263C60" stroke-width="3" fill="#FFFFFF" transform="translate(40.046512, 50.571429) scale(-1, 1) translate(-40.046512, -50.571429) "></path>
            <polyline id="Stroke-3" stroke="#263C60" stroke-width="3" fill="#FFFFFF" transform="translate(15.046512, 41.428571) scale(-1, 1) translate(-15.046512, -41.428571) " points="4 47.6 4 56.8571429 26.0930233 41.3668571 4 26 4 35.2571429"></polyline>
        </g>
    </g>
</svg>