<?xml version="1.0" encoding="UTF-8"?>
<svg width="100px" height="86px" viewBox="0 0 100 86" version="1.1" xmlns="http://www.w3.org/2000/svg" xmlns:xlink="http://www.w3.org/1999/xlink">
    <!-- Generator: Sketch 48.2 (47327) - http://www.bohemiancoding.com/sketch -->
    <title>img_support_big</title>
    <desc>Created with Sketch.</desc>
    <defs>
        <path d="M92.5571726,81.2203696 L96.4823448,80.7071088 L96.4823448,76.7765762 L92.5424315,76.2606351 C92.2556487,75.0223766 91.7598092,73.8658647 91.0951164,72.8246018 L93.4912269,69.6431888 L90.7614298,66.9308131 L87.5733163,69.3604263 C86.5441144,68.7238757 85.407704,68.2481379 84.1922274,67.9747561 L83.7057687,64 L79.7752361,64 L79.2579549,67.9774363 C78.0170162,68.2601988 76.8591641,68.7493377 75.8165612,69.40599 L72.6431888,66.992458 L69.9321532,69.720915 L72.3657868,72.8339826 C71.6997538,73.8765855 71.2039144,75.0371178 70.9171315,76.2780565 L67,76.7765762 L67,80.7071088 L70.8997102,81.1922274 C71.1784523,82.4345062 71.6689313,83.5950385 72.3269237,84.6416617 L69.9911179,87.8418362 L72.720915,90.5501916 L75.8795462,88.1688222 C76.9087481,88.8080531 78.0491788,89.285131 79.2686758,89.561193 L79.7752361,93.4823448 L83.7057687,93.4823448 L84.2297503,89.5531523 C85.457288,89.2717299 86.6044192,88.7866114 87.6389815,88.1366597 L90.8404961,90.4912269 L93.5501916,87.7627699 L91.1514008,84.6175398 C91.7973322,83.5856577 92.2797706,82.4425468 92.5571726,81.2203696 Z" id="path-1"></path>
    </defs>
    <g id="Elements/Image/img_support_big" stroke="none" stroke-width="1" fill="none" fill-rule="evenodd" transform="translate(-1.000000, -12.000000)">
        <g id="img_support_big">
            <path d="M15.8,39 L19.0032,39 L19,39 C27.8352,39 35,33.4021066 35,26.5 C35,19.5947955 27.8352,14 19,14 C10.1616,14 3,19.5947955 3,26.5 C3,30.6449814 5.7232,34.1363073 9.7072,36.4101611" id="Stroke-1" stroke="#263C60" stroke-width="3" stroke-linecap="round" stroke-linejoin="round" transform="translate(19.000000, 26.500000) scale(-1, 1) translate(-19.000000, -26.500000) "></path>
            <path d="M26.4036577,36 C26.1479425,39.977305 23,44 23,44 C23,44 28.8549967,42.2666667 32,38.3716312" id="Stroke-3" stroke="#263C60" stroke-width="3" stroke-linecap="round" stroke-linejoin="round" transform="translate(27.500000, 40.000000) scale(-1, 1) translate(-27.500000, -40.000000) "></path>
            <path d="M22.0000029,81.4807728 C26.3041647,70.8935638 34.1215036,63.0017716 44.8486426,60.1557925 C47.0503392,63.8392335 50.1007916,67.9539694 54,72.5 C57.8992084,67.9539694 60.9496608,63.8392335 63.1513574,60.1557925 C73.8784964,63.0017716 81.6958353,70.8935638 85.9999971,81.4807728 C77.8709602,89.8231753 66.5371166,95 54,95 C41.4628834,95 30.1290398,89.8231753 22,81.4807698 Z M54,59 C45.5201857,59 40.5651958,47.836556 40.5651958,39 C40.5651958,30.163444 45.5201857,23 54,23 C62.4798143,23 67.4348042,30.163444 67.4348042,39 C67.4348042,47.836556 62.4798143,59 54,59 Z" id="Combined-Shape" stroke="#263C60" stroke-width="3"></path>
            <g id="Stroke-3" stroke-linecap="round" stroke-linejoin="round">
                <use fill="#FFFFFF" fill-rule="evenodd" xlink:href="#path-1"></use>
                <path stroke="#FFFFFF" stroke-width="4" d="M94.115369,83.0336438 C93.9486749,83.5138385 93.7538043,83.9835673 93.5319586,84.440879 L96.1972854,87.9355839 L91.0445745,93.1239713 L87.4868012,90.5073921 C87.0171981,90.7371748 86.5341496,90.9386536 86.0397632,91.110581 L85.456762,95.4823448 L78.0169891,95.4823448 L77.4534703,91.1202912 C76.9753853,90.9550774 76.507841,90.7622467 76.0527741,90.5429388 L72.5418709,93.1898946 L67.3623322,88.0510396 L69.9579794,84.4948689 C69.722065,84.0141267 69.5160155,83.5196919 69.34123,83.0137702 L65,82.4737271 L65,75.0149775 L69.3650527,74.4594525 C69.5378198,73.9664897 69.7400313,73.4849869 69.9704188,73.0172099 L67.2698999,69.5627467 L72.4593706,64.339928 L75.9886049,67.0241134 C76.4606527,66.7936238 76.9463989,66.5916412 77.4437407,66.4193991 L78.0185008,62 L85.4759175,62 L86.016605,66.4178492 C86.4854109,66.5801214 86.9443997,66.7692368 87.391898,66.9841063 L90.9350582,64.2839173 L96.1378701,69.4535251 L93.4788171,72.9840574 C93.7138648,73.4585459 93.9197889,73.9468966 94.0952743,74.446908 L98.4823448,75.0214053 L98.4823448,82.4626121 L94.115369,83.0336438 Z"></path>
            </g>
            <path d="M92.5571726,81.2203696 L96.4823448,80.7071088 L96.4823448,76.7765762 L92.5424315,76.2606351 C92.2556487,75.0223766 91.7598092,73.8658647 91.0951164,72.8246018 L93.4912269,69.6431888 L90.7614298,66.9308131 L87.5733163,69.3604263 C86.5441144,68.7238757 85.407704,68.2481379 84.1922274,67.9747561 L83.7057687,64 L79.7752361,64 L79.2579549,67.9774363 C78.0170162,68.2601988 76.8591641,68.7493377 75.8165612,69.40599 L72.6431888,66.992458 L69.9321532,69.720915 L72.3657868,72.8339826 C71.6997538,73.8765855 71.2039144,75.0371178 70.9171315,76.2780565 L67,76.7765762 L67,80.7071088 L70.8997102,81.1922274 C71.1784523,82.4345062 71.6689313,83.5950385 72.3269237,84.6416617 L69.9911179,87.8418362 L72.720915,90.5501916 L75.8795462,88.1688222 C76.9087481,88.8080531 78.0491788,89.285131 79.2686758,89.561193 L79.7752361,93.4823448 L83.7057687,93.4823448 L84.2297503,89.5531523 C85.457288,89.2717299 86.6044192,88.7866114 87.6389815,88.1366597 L90.8404961,90.4912269 L93.5501916,87.7627699 L91.1514008,84.6175398 C91.7973322,83.5856577 92.2797706,82.4425468 92.5571726,81.2203696 Z" id="Stroke-3" stroke="#263C60" stroke-width="3" fill="#FFFFFF" stroke-linecap="round" stroke-linejoin="round"></path>
            <path d="M86.0603448,79.0323276 C86.0603448,76.7543485 84.213324,74.9073276 81.9353448,74.9073276 C79.6573657,74.9073276 77.8103448,76.7543485 77.8103448,79.0323276 C77.8103448,81.3103067 79.6573657,83.1573276 81.9353448,83.1573276 C84.213324,83.1573276 86.0603448,81.3103067 86.0603448,79.0323276 Z" id="Stroke-1" stroke="#263C60" stroke-width="3"></path>
            <path d="M37,77 L44,77" id="Stroke-10" stroke="#263C60" stroke-width="3" stroke-linecap="round" stroke-linejoin="round"></path>
        </g>
    </g>
</svg>