<?xml version="1.0" encoding="UTF-8"?>
<svg width="72px" height="75px" viewBox="0 0 72 75" version="1.1" xmlns="http://www.w3.org/2000/svg" xmlns:xlink="http://www.w3.org/1999/xlink">
    <!-- Generator: Sketch 48.2 (47327) - http://www.bohemiancoding.com/sketch -->
    <title>img_finishit_big</title>
    <desc>Created with Sketch.</desc>
    <defs></defs>
    <g id="Elements/Image/img_finishit_big" stroke="none" stroke-width="1" fill="none" fill-rule="evenodd" transform="translate(-15.000000, -15.000000)">
        <g id="img_finishit_big" stroke="#263C60" stroke-width="3">
            <g id="Group-8" transform="translate(15.000000, 27.000000)">
                <path d="M5.414595,22.5726036 C5.19187337,22.5614675 4.98870377,22.6991665 4.91653394,22.9101722 C2.63666105,29.575745 1.5,35.9380002 1.5,42 C1.5,48.02765 2.6237723,54.0601821 4.87583601,60.1048437 C4.95194157,60.3091152 5.1516179,60.4405368 5.36933498,60.429651 L22.0249688,59.5968777 C22.2910735,59.5835725 22.5,59.3639387 22.5,59.0975016 L22.5,23.9024984 C22.5,23.6360613 22.2910735,23.4164275 22.0249688,23.4031223 L5.414595,22.5726036 Z" id="Rectangle-2"></path>
                <path d="M47.1876364,22.9225906 L59.6221818,22.9225906 C64.6927273,22.9225906 67.5156364,25.9516815 67.5156364,28.5429542 C67.5156364,33.262227 64.8225455,33.0509542 64.8225455,33.0509542 C64.8225455,33.0509542 70,33.1044088 70,38.1953179 C70,43.286227 64.9294545,43.3371361 64.9294545,43.3371361 C64.9294545,43.3371361 67.4596364,43.7113179 67.4138182,47.6873179 C67.3578182,52.1164088 62.5010909,52.5644088 62.5010909,52.5644088 C62.5010909,52.5644088 64.7716364,52.9105906 64.7716364,55.9345906 C64.7716364,59.8036815 60.4672727,61.1044088 53.3374545,61.1044088 L44.6523636,61.1044088 C37.3163636,61.1044088 32.1745455,56.0134997 26.6738182,56.0134997 L16.8025455,56.0134997 C16.8025455,56.0134997 14,52.4956815 14,43.286227 C14,34.0767724 16.5352727,28.0134997 16.5352727,28.0134997 C16.5352727,28.0134997 27.3483636,26.7789542 32.8516364,21.2527724 C38.024,16.0574997 41.1676364,8.9225906 42.1170909,1.65531787 C42.2316364,0.78731787 42.8298182,0.0847724152 43.7003636,0.0134996879 C45.9225455,-0.169773039 49.0534545,1.46695423 49.4836364,7.75677242 C49.952,14.5913179 47.1876364,22.9225906 47.1876364,22.9225906 Z" id="Page-1" fill="#FFFFFF" stroke-linecap="round" stroke-linejoin="round"></path>
            </g>
            <g id="Group-7" transform="translate(21.000000, 18.000000)" stroke-linecap="round" stroke-linejoin="round">
                <path d="M23.5,11 C23.5,17.9024271 17.9024271,23.5 11,23.5 C4.0962214,23.5 -1.5,17.9030757 -1.5,11 C-1.5,4.09692426 4.0962214,-1.5 11,-1.5 C17.9024271,-1.5 23.5,4.09757288 23.5,11 Z" id="Stroke-1"></path>
                <polyline id="Stroke-3" points="5 11 10 15 17 7"></polyline>
            </g>
        </g>
    </g>
</svg>