<?xml version="1.0" encoding="UTF-8"?>
<svg width="14px" height="14px" viewBox="0 0 14 14" version="1.1" xmlns="http://www.w3.org/2000/svg" xmlns:xlink="http://www.w3.org/1999/xlink">
    <!-- Generator: Sketch 48.2 (47327) - http://www.bohemiancoding.com/sketch -->
    <title>Elements/Icons/Ease_of_Repair/ic_hear_select</title>
    <desc>Created with Sketch.</desc>
    <defs></defs>
    <g id="Units/Diagnose/un_diagnose_card_causeandsolution_hasmodelnumber" stroke="none" stroke-width="1" fill="none" fill-rule="evenodd" transform="translate(-447.000000, -97.000000)">
        <g id="01" transform="translate(30.000000, 0.000000)" fill="#697377">
            <g id="Units/Product_Card/un_ease_of_repair" transform="translate(383.000000, 56.000000)">
                <g id="Group" transform="translate(1.000000, 40.000000)">
                    <g id="Elements/Icons/Ease_of_Repair/ic_hear_select" transform="translate(32.000000, 0.000000)">
                        <g id="ic_gear_select">
                            <path d="M13.7945716,4.45939573 L8.19475003,1.13137586 C8.05738257,1.0497268 7.88849775,1.04723942 7.75170284,1.12481048 L2.17711291,4.2828925 C2.03848494,4.35910167 1.95649896,4.50619464 1.95693965,4.66523979 L1.9823031,11.1515166 C1.98304718,11.3106075 2.06807328,11.4591302 2.20544073,11.5407792 L7.80513044,14.8686241 C7.9424979,14.9502732 8.11138272,14.9527606 8.24817763,14.8751895 L13.8227676,11.7171075 C13.8392731,11.7079615 13.8550273,11.6974614 13.8697792,11.6863451 C13.9785315,11.6043943 14.0432437,11.4747071 14.0429408,11.3347602 L14.0177092,4.84865831 C14.0169651,4.68956748 13.9320709,4.54121977 13.7945716,4.45939573 Z M10.9155729,8.38222151 C10.7251001,9.89356095 9.45663269,11 8.00058718,11 C7.87611411,11 7.75048314,10.9919296 7.62388728,10.9751981 C6.0155794,10.7643822 4.87505868,9.25816064 5.08174187,7.61769396 C5.28861805,5.97722731 6.76724235,4.81370457 8.37342746,5.02471732 C9.98173534,5.23553323 11.1222561,6.74175486 10.9155729,8.38222151 Z" id="ic_gear" fill-rule="nonzero"></path>
                        </g>
                    </g>
                </g>
            </g>
        </g>
    </g>
</svg>