<svg xmlns="http://www.w3.org/2000/svg" width="40" height="26" viewBox="0 0 40 26">
    <g fill="none" fill-rule="evenodd" transform="translate(1 1)">
        <rect width="38.5" height="24.5" x="-.25" y="-.25" stroke="#C6C9CC" stroke-width=".5" rx="2"/>
        <rect width="38" height="24" fill="#1697D5" rx="2"/>
        <path fill="#FFF" d="M12.311 5.87h3.569v.935h-2.5v.81h2.44v.922h-2.44v.897h2.5v.93H12.31V5.87zm4.307 0h2.457c.546 0 .948.014 1.293.215.338.2.54.494.54.995 0 .716-.475 1.087-.752 1.198.234.09.434.247.529.378.15.224.177.423.177.825v.883h-1.078l-.004-.567c0-.27.026-.66-.169-.876-.156-.158-.394-.192-.778-.192h-1.147v1.635h-1.068V5.87zm4.914 4.494h1.09V5.87h-1.09v4.494zm3.82-4.494h1.034v.963h-1.013c-.39 0-.61.058-.822.266-.182.189-.307.547-.307 1.018 0 .481.095.828.294 1.055.164.178.463.232.744.232h.48l1.506-3.534h1.6l1.81 4.25V5.87h1.626L34.18 9V5.87h1.095v4.494h-1.514L31.737 6.99v3.373h-2.176l-.415-1.003h-2.22l-.403 1.003h-1.25c-.52 0-1.177-.116-1.549-.498-.375-.381-.57-.898-.57-1.715 0-.667.116-1.276.575-1.757.346-.359.886-.524 1.623-.524zM9.665 10.493v.774h8.925l-.004-1.638h.173c.121.004.156.015.156.216v1.423h4.616v-.382c.373.2.952.382 1.714.382h1.942l.415-.999h.922l.406.999h3.742v-.949l.567.948h2.999V5H33.27v.74L32.854 5H29.81v.74L29.427 5h-4.113c-.689 0-1.294.097-1.783.366V5h-2.839v.366c-.31-.278-.735-.366-1.206-.366H9.116l-.697 1.619L7.705 5H4.438v.74L4.08 5H1.294L0 7.98v2.384L1.913 5.87H3.5l1.817 4.254V5.87H7.06l1.398 3.048L9.743 5.87h1.778v4.494h-1.095l-.004-3.52-1.549 3.52h-.938L6.382 6.84v3.523H4.21L3.8 9.36H1.574l-.415 1.003H0v.904h1.825l.412-.999h.921l.41.999H7.16v-.764l.32.767h1.865l.32-.778zm6.769 7.217v-3.604l-1.64 1.773 1.64 1.83zm-6.859-3.144v.818h2.346v.917H9.575v.894h2.627l1.22-1.319-1.168-1.31H9.575zm7.904 0v1.145h1.38c.41 0 .666-.205.666-.593 0-.393-.267-.552-.653-.552h-1.393zm18.142.082c-.113.073-.156.18-.156.323 0 .17.095.285.233.335.113.04.234.05.412.05l.579.016c.584.015.974.116 1.212.362.043.034.07.073.099.111v-1.278h-1.947c-.194 0-.324.007-.432.08zm-12.014-.081h-1.315v1.009h1.298c.208 0 .384-.007.527-.093a.486.486 0 0 0 .221-.431c0-.192-.082-.331-.22-.404-.13-.077-.32-.081-.51-.081zm6.715 3.573v-.963h2.072c.203 0 .346-.027.436-.112a.4.4 0 0 0 .127-.293.387.387 0 0 0-.13-.297c-.083-.069-.195-.1-.381-.1-1-.034-2.25.031-2.25-1.391 0-.652.407-1.338 1.527-1.338h2.142v.956h-1.96c-.194 0-.32.008-.428.082-.117.072-.16.18-.16.323 0 .17.099.285.233.335.113.04.234.05.416.05l.575.016c.58.014.978.115 1.22.362.208.216.32.49.32.952 0 .967-.601 1.418-1.679 1.418h-2.08zm-.665-3.565h-2.501v.817h2.44v.918h-2.44v.894l2.501.004v.932h-3.565v-4.494h3.565v.93zm-4.236 2.675v.89H24.35v-.562c0-.27.026-.67-.173-.88-.156-.16-.394-.199-.784-.199h-1.141v1.642h-1.074v-4.495h2.467c.54 0 .934.024 1.285.212.337.205.55.485.55.998 0 .717-.477 1.083-.758 1.196.238.088.432.246.523.377.151.22.173.424.177.82zm-7.92-.617v1.507h-2.076l-1.315-1.487-1.367 1.488H8.512v-4.495h4.296l1.314 1.473 1.36-1.473h3.413c.847 0 1.8.236 1.8 1.48 0 1.25-.927 1.507-1.86 1.507h-1.333zm16.984 1.48v-.963h2.055c.204 0 .346-.027.432-.111a.396.396 0 0 0 .126-.293.37.37 0 0 0-.13-.298c-.078-.068-.19-.1-.377-.1-1.003-.034-2.254.032-2.254-1.39 0-.653.412-1.339 1.533-1.339h2.128v-.894H36.02c-.597 0-1.03.143-1.337.367v-.367h-2.925c-.467 0-1.016.116-1.276.367v-.367h-5.222v.367c-.415-.302-1.117-.367-1.44-.367h-3.445v.367c-.328-.32-1.06-.367-1.505-.367h-3.855l-.882.96-.827-.96H7.55v6.272h5.65l.909-.975.856.975 3.483.003v-1.476h.342c.462.008 1.007-.01 1.488-.22v1.693h2.873v-1.635h.138c.177 0 .195.007.195.185v1.45h8.726c.554 0 1.133-.143 1.454-.402v.401h2.768c.576 0 1.139-.08 1.567-.289V17.54c-.26.381-.766.575-1.45.575h-2.063zM2.703 6.638l-.727 1.792h1.458l-.731-1.792zm17.076.683c0-.193-.086-.332-.225-.397-.126-.073-.32-.081-.506-.081h-1.316v.998h1.298c.208 0 .382-.003.528-.093.14-.073.22-.23.22-.427zm8.264-.683l-.735 1.792h1.474l-.739-1.792z"/>
    </g>
</svg>
