<svg xmlns="http://www.w3.org/2000/svg" xmlns:xlink="http://www.w3.org/1999/xlink" width="40" height="26" viewBox="0 0 40 26">
    <defs>
        <path id="a" d="M2 14.473h33.897V9.051H2z"/>
    </defs>
    <g fill="none" fill-rule="evenodd" transform="translate(1 1)">
        <rect width="38.5" height="24.5" x="-.25" y="-.25" stroke="#C6C9CC" stroke-width=".5" rx="2"/>
        <path fill="#F47216" d="M19.768 9.051a2.71 2.71 0 0 1 2.71 2.71v.001a2.71 2.71 0 1 1-5.42 0v-.001a2.71 2.71 0 0 1 2.71-2.71"/>
        <path fill="#000" d="M15.409 9.086c.456 0 .838.092 1.304.313v1.17c-.441-.404-.824-.573-1.33-.573-.994 0-1.776.771-1.776 1.75 0 1.032.758 1.758 1.826 1.758.48 0 .856-.16 1.28-.558v1.17c-.482.212-.873.296-1.33.296-1.614 0-2.869-1.161-2.869-2.659 0-1.482 1.288-2.667 2.895-2.667M10.395 9.119c.596 0 1.142.19 1.598.565l-.555.68c-.277-.29-.538-.412-.855-.412-.457 0-.79.244-.79.565 0 .275.187.42.823.641 1.206.414 1.563.78 1.563 1.59 0 .987-.773 1.673-1.874 1.673-.807 0-1.394-.297-1.882-.97l.684-.618c.245.443.652.68 1.158.68.473 0 .823-.306.823-.72 0-.213-.106-.397-.318-.526-.106-.062-.318-.153-.733-.29-.996-.337-1.337-.696-1.337-1.398 0-.834.733-1.46 1.695-1.46M22.512 9.207h1.159l1.45 3.423 1.468-3.423h1.15l-2.349 5.227h-.57z"/>
        <mask id="b" fill="#fff">
            <use xlink:href="#a"/>
        </mask>
        <path fill="#000" d="M6.963 14.311h1.06V9.215h-1.06zM28.218 9.215h3.007v.864h-1.947v1.13h1.875v.864h-1.875v1.376h1.947v.862h-3.007zM33.296 11.561h-.31v-1.543h.327c.66 0 1.02.26 1.02.755 0 .513-.36.788-1.037.788zm.89.603c.798-.152 1.237-.664 1.237-1.444 0-.954-.7-1.505-1.923-1.505h-1.573v5.096h1.06v-2.047h.138l1.467 2.047h1.305l-1.712-2.147zM4.795 13.044c-.333.281-.766.405-1.45.405H3.06v-3.37h.284c.685 0 1.1.115 1.451.412.367.306.587.78.587 1.269a1.7 1.7 0 0 1-.587 1.284M3.556 9.215H2v5.096h1.548c.823 0 1.418-.182 1.94-.588.62-.481.987-1.206.987-1.956 0-1.504-1.199-2.552-2.919-2.552" mask="url(#b)"/>
    </g>
</svg>
