<svg xmlns="http://www.w3.org/2000/svg" width="40" height="26" viewBox="0 0 40 26">
    <g fill="none" fill-rule="evenodd" transform="translate(1 1)">
        <rect width="38.5" height="24.5" x="-.25" y="-.25" stroke="#C6C9CC" stroke-width=".5" rx="2"/>
        <path fill="#D9222A" d="M19 16.899a7 7 0 1 1 0-9.798A6.977 6.977 0 0 0 17 12c0 1.907.763 3.637 2 4.899z"/>
        <path fill="#EE9D39" d="M19 16.899a7 7 0 1 0 0-9.798A6.977 6.977 0 0 1 21 12a6.977 6.977 0 0 1-2 4.899z"/>
        <path fill="#F26122" d="M19 16.899A6.977 6.977 0 0 1 17 12c0-1.907.763-3.636 2-4.899A6.977 6.977 0 0 1 21 12a6.977 6.977 0 0 1-2 4.899z"/>
        <path fill="#FFF" d="M10.808 13.832h-.78l.448-2.714-.998 2.714h-.53l-.067-2.698-.469 2.698h-.73l.61-3.53h1.12l.032 2.185.757-2.185h1.21zM13.295 13.832h-.646l.015-.297c-.197.235-.46.347-.817.347-.423 0-.712-.32-.712-.784 0-.7.503-1.107 1.368-1.107.089 0 .202.008.318.022a.686.686 0 0 0 .03-.187c0-.19-.135-.26-.5-.26a2.677 2.677 0 0 0-.825.128l.108-.645c.389-.11.645-.152.933-.152.67 0 1.024.291 1.024.841 0 .149-.025.33-.064.57-.067.415-.212 1.307-.232 1.524m-.567-1.279a1.347 1.347 0 0 0-.174-.011c-.442 0-.666.146-.666.436 0 .179.11.293.28.293.318 0 .546-.293.56-.718M23.75 10.397l-.128.766c-.278-.135-.48-.19-.696-.19-.582 0-.99.545-.99 1.322 0 .536.274.86.727.86.192 0 .404-.058.662-.181l-.136.805a2.5 2.5 0 0 1-.69.103c-.839 0-1.362-.585-1.362-1.524 0-1.263.723-2.145 1.756-2.145.34 0 .742.14.857.184M25.575 13.832h-.646l.014-.297c-.197.235-.46.347-.816.347-.423 0-.713-.32-.713-.784 0-.7.504-1.107 1.369-1.107.088 0 .202.008.318.022a.691.691 0 0 0 .03-.187c0-.19-.136-.26-.5-.26a2.679 2.679 0 0 0-.825.128l.108-.645c.389-.11.645-.152.933-.152.67 0 1.024.291 1.023.841.002.149-.024.33-.063.57-.067.415-.213 1.307-.232 1.524m-.568-1.279a1.345 1.345 0 0 0-.173-.011c-.442 0-.666.146-.666.436 0 .179.11.293.28.293.317 0 .546-.293.56-.718M16.759 13.789c-.214.065-.38.093-.56.093-.398 0-.616-.222-.616-.63-.005-.128.058-.461.107-.766.045-.269.338-1.96.338-1.96h.775l-.09.435h.397l-.106.69h-.399c-.09.546-.219 1.226-.22 1.316 0 .149.082.213.267.213a.65.65 0 0 0 .21-.027l-.103.636M18.699 12.063c.005-.06.082-.513-.36-.513-.247 0-.424.183-.496.513h.856zm.436 1.703a2.73 2.73 0 0 1-.796.116c-.867 0-1.319-.44-1.319-1.28 0-.983.575-1.705 1.356-1.705.639 0 1.047.404 1.047 1.039a3 3 0 0 1-.096.706h-1.543c-.052.417.223.59.674.59.277 0 .527-.055.805-.18l-.128.714zM13.762 11.869c0 .363.182.613.594.802.316.143.364.186.364.316 0 .18-.139.26-.447.26-.233 0-.45-.035-.699-.113l-.107.663c.177.038.335.072.811.085.823 0 1.203-.303 1.203-.96 0-.394-.16-.626-.55-.8-.327-.146-.364-.178-.364-.312 0-.155.13-.235.381-.235.153 0 .362.016.56.044l.111-.666a5.441 5.441 0 0 0-.686-.056c-.872 0-1.173.441-1.17.972M28.55 13.169c.363 0 .618-.399.618-.968 0-.365-.145-.563-.413-.563-.353 0-.604.4-.604.965 0 .376.134.566.4.566zm1.15.663h-.737l.037-.267c-.214.222-.434.317-.72.317-.566 0-.94-.473-.94-1.191 0-.956.58-1.76 1.268-1.76.302 0 .531.119.744.39l.173-1.02h.769l-.594 3.531zM26.277 10.961c-.098.889-.271 1.789-.407 2.678l-.035.193h.78c.278-1.756.346-2.098.783-2.055.07-.36.2-.675.296-.833-.327-.066-.509.113-.748.452.02-.147.054-.29.047-.435h-.716M19.86 10.961c-.098.889-.271 1.789-.407 2.678l-.035.193h.78c.278-1.756.346-2.098.783-2.055.07-.36.2-.675.296-.833-.327-.066-.51.113-.748.452.02-.147.053-.29.047-.435h-.716"/>
    </g>
</svg>
