<svg xmlns="http://www.w3.org/2000/svg" xmlns:xlink="http://www.w3.org/1999/xlink" width="40" height="26" viewBox="0 0 40 26">
    <defs>
        <path id="a" d="M11.294.276v12.662H.109V.275z"/>
        <path id="c" d="M0 .463v15.092h13.375V.463H0z"/>
    </defs>
    <g fill="none" fill-rule="evenodd" transform="translate(1 1)">
        <rect width="38.5" height="24.5" x="-.25" y="-.25" stroke="#C6C9CC" stroke-width=".5" rx="2"/>
        <path fill="#253B80" d="M16.192 19.962l.302-1.869-.672-.016h-3.21l2.23-13.788a.182.182 0 0 1 .181-.15h5.412c1.797 0 3.037.364 3.684 1.084.303.337.497.69.59 1.078.098.407.1.894.004 1.487l-.007.043v.38l.304.168c.255.133.458.284.614.457.26.289.428.655.499 1.09.073.447.049.98-.071 1.582-.139.693-.363 1.297-.665 1.79a3.706 3.706 0 0 1-1.053 1.125 4.337 4.337 0 0 1-1.418.624c-.523.133-1.119.2-1.772.2h-.421c-.302 0-.594.106-.824.295-.23.193-.382.458-.429.747l-.032.168-.533 3.294-.024.12c-.006.038-.017.058-.033.071a.094.094 0 0 1-.056.02h-2.6z"/>
        <g transform="translate(15.462 7.6)">
            <mask id="b" fill="#fff">
                <use xlink:href="#a"/>
            </mask>
            <path fill="#179BD7" d="M9.835.276c-.016.1-.034.203-.055.309-.714 3.572-3.155 4.807-6.274 4.807H1.92a.765.765 0 0 0-.762.636l-.813 5.027-.23 1.425a.4.4 0 0 0 .4.457H3.33a.673.673 0 0 0 .67-.556l.027-.14.53-3.28.035-.18a.672.672 0 0 1 .669-.558h.421c2.728 0 4.864-1.08 5.488-4.206.261-1.305.126-2.395-.564-3.162a2.685 2.685 0 0 0-.77-.58" mask="url(#b)"/>
        </g>
        <path fill="#222D65" d="M24.55 7.585a5.747 5.747 0 0 0-.694-.15 9.04 9.04 0 0 0-1.4-.1h-4.24a.688.688 0 0 0-.293.065.661.661 0 0 0-.377.493l-.902 5.573-.026.162a.765.765 0 0 1 .762-.637h1.588c3.118 0 5.56-1.235 6.273-4.806.022-.106.04-.21.056-.31a3.858 3.858 0 0 0-.747-.29"/>
        <g transform="translate(12 3.1)">
            <mask id="d" fill="#fff">
                <use xlink:href="#c"/>
            </mask>
            <path fill="#253B80" d="M5.546 4.794a.66.66 0 0 1 .377-.493.69.69 0 0 1 .292-.065h4.242c.502 0 .971.032 1.4.1a5.747 5.747 0 0 1 .854.199c.21.067.406.148.586.24.213-1.32-.001-2.218-.733-3.032C11.756.847 10.3.463 8.436.463H3.024c-.38 0-.705.27-.764.637L.006 15.03a.457.457 0 0 0 .458.525h3.341l.84-5.19.901-5.571z" mask="url(#d)"/>
        </g>
    </g>
</svg>
