<svg xmlns="http://www.w3.org/2000/svg" width="40" height="26" viewBox="0 0 40 26">
    <g fill="none" fill-rule="evenodd" transform="translate(1 1)">
        <rect width="38.5" height="24.5" x="-.25" y="-.25" stroke="#C6C9CC" stroke-width=".5" rx="2"/>
        <path fill="#0E4595" d="M26.553 7.473a7.061 7.061 0 0 0-2.45-.422c-2.703 0-4.606 1.36-4.622 3.311-.015 1.442 1.359 2.246 2.396 2.726 1.064.491 1.422.805 1.417 1.244-.007.673-.85.98-1.636.98-1.094 0-1.676-.152-2.574-.527l-.352-.16-.384 2.247c.639.28 1.82.522 3.046.535 2.875 0 4.74-1.345 4.762-3.428.01-1.141-.718-2.01-2.296-2.726-.956-.464-1.541-.773-1.535-1.243 0-.417.495-.863 1.566-.863a5.044 5.044 0 0 1 2.047.384l.245.116.37-2.174M30.238 13.734c.226-.578 1.09-2.804 1.09-2.804-.017.027.224-.581.362-.958l.184.865.634 2.897h-2.27zm3.352-6.478h-2.113c-.654 0-1.144.179-1.432.832l-4.06 9.194h2.87s.47-1.236.576-1.508l3.502.005c.082.351.333 1.503.333 1.503h2.537L33.59 7.256zM13.94 17.289l1.71-10.033h2.735L16.674 17.29zM11.62 7.256l-2.678 6.842-.285-1.39c-.498-1.603-2.051-3.34-3.787-4.21l2.448 8.775 2.893-.004 4.305-10.013H11.62"/>
        <path fill="#F2AE14" d="M6.444 7.256h-4.41L2 7.465c3.43.83 5.7 2.837 6.643 5.248l-.96-4.61c-.165-.635-.645-.825-1.239-.847"/>
    </g>
</svg>
